<svg fill="#5271ff" xmlns:dc="http://purl.org/dc/elements/1.1/" xmlns:cc="http://creativecommons.org/ns#" xmlns:rdf="http://www.w3.org/1999/02/22-rdf-syntax-ns#" xmlns:svg="http://www.w3.org/2000/svg" xmlns="http://www.w3.org/2000/svg" xmlns:sodipodi="http://sodipodi.sourceforge.net/DTD/sodipodi-0.dtd" xmlns:inkscape="http://www.inkscape.org/namespaces/inkscape" version="1.1" x="0px" y="0px" viewBox="0 0 100 100"><g transform="translate(0,-952.36218)"><path style="text-indent:0;text-transform:none;direction:ltr;block-progression:tb;baseline-shift:baseline;color:#000000;enable-background:accumulate;" d="m 79.469007,959.36833 a 2.0002002,2.0002002 0 0 0 -1.1876,0.5625 l -45.25,45.24997 a 2.0002002,2.0002002 0 0 0 -0.5937,1.2188 l -1.4063,12.7188 a 2.0002002,2.0002002 0 0 0 2.2188,2.2188 l 12.7188,-1.4375 a 2.0002002,2.0002002 0 0 0 1.1874,-0.5625 l 45.25,-45.25012 a 2.0002002,2.0002002 0 0 0 0,-2.84375 l -11.3124,-11.3125 a 2.0002002,2.0002002 0 0 0 -1.625,-0.5625 z m 0.2187,4.8125 8.5,8.5 -2.8125,2.8125 -8.5,-8.5 2.8125,-2.8125 z m -70.8750003,5.1875 a 2.0001999,2.0001999 0 0 0 -1.8125,2 l 0,72.00007 a 2.0001999,2.0001999 0 0 0 2,2 l 72.0000003,0 a 2.0001999,2.0001999 0 0 0 2,-2 l 0,-49.00007 a 2.0001999,2.0001999 0 1 0 -4,0 l 0,47.00007 -68,0 0,-68.00007 47,0 a 2.0001999,2.0001999 0 1 0 0,-4 l -49.0000003,0 a 2.0001999,2.0001999 0 0 0 -0.1875,0 z m 65.2187003,0.46875 8.5,8.5 -36.0624,36.06262 -8.5,-8.5001 36.0624,-36.06252 z m -37.9374,39.84382 6.5624,6.5625 -7.375,0.8125 0.8126,-7.375 z" fill="#5271ff" fill-opacity="1" stroke="none" marker="none" visibility="visible" display="inline" overflow="visible"></path></g></svg>
