<svg fill="#F5D327" xmlns:dc="http://purl.org/dc/elements/1.1/" xmlns:cc="http://creativecommons.org/ns#" xmlns:rdf="http://www.w3.org/1999/02/22-rdf-syntax-ns#" xmlns:svg="http://www.w3.org/2000/svg" xmlns="http://www.w3.org/2000/svg" xmlns:sodipodi="http://sodipodi.sourceforge.net/DTD/sodipodi-0.dtd" xmlns:inkscape="http://www.inkscape.org/namespaces/inkscape" version="1.1" x="0px" y="0px" viewBox="0 0 100 100"><g transform="translate(0,-952.36218)"><path style="text-indent:0;text-transform:none;direction:ltr;block-progression:tb;baseline-shift:baseline;color:#000000;enable-background:accumulate;" d="m 70,959.36219 c -8.2487,0 -15,6.75126 -15,15 0,1.28887 0.1904,2.52305 0.5,3.71875 l -16.2812,12.46875 c -2.5477,-1.9948 -5.7522,-3.1875 -9.2188,-3.1875 -8.2487,0 -15,6.75126 -15,15.00001 0,8.2487 6.7513,15 15,15 3.4821,0 6.6968,-1.2078 9.25,-3.2188 l 16.25,12.4688 c -0.3145,1.2045 -0.5,2.4506 -0.5,3.75 0,8.2487 6.7513,15 15,15 8.2487,0 15,-6.7513 15,-15 0,-8.2488 -6.7513,-15 -15,-15 -4.7821,0 -9.0607,2.2667 -11.8125,5.7812 l -15.0313,-11.5937 c 1.179,-2.1393 1.8438,-4.5851 1.8438,-7.1875 0,-2.61754 -0.6832,-5.07068 -1.875,-7.21876 l 15.0625,-11.59375 c 2.7513,3.52564 7.0215,5.8125 11.8125,5.8125 8.2487,0 15,-6.75126 15,-15 0,-8.24874 -6.7513,-15 -15,-15 z m 0,6 c 5.0061,0 9,3.9939 9,9 0,5.0061 -3.9939,9 -9,9 -5.0061,0 -9,-3.9939 -9,-9 0,-5.0061 3.9939,-9 9,-9 z m -40,28 c 5.0061,0 9,3.9939 9,9.00001 0,5.0061 -3.9939,9 -9,9 -5.0061,0 -9,-3.9939 -9,-9 0,-5.00611 3.9939,-9.00001 9,-9.00001 z m 40,28.00001 c 5.0061,0 9,3.9939 9,9 0,5.0061 -3.9939,9 -9,9 -5.0061,0 -9,-3.9939 -9,-9 0,-5.0061 3.9939,-9 9,-9 z" fill="#F5D327" fill-opacity="1" stroke="none" marker="none" visibility="visible" display="inline" overflow="visible"></path></g></svg>