<svg fill="#5271ff" xmlns="http://www.w3.org/2000/svg" xmlns:xlink="http://www.w3.org/1999/xlink" version="1.1" x="0px" y="0px" viewBox="0 0 20 20" enable-background="new 0 0 20 20" xml:space="preserve"><g><path fill="#5271ff" d="M19,0H1C0.4,0,0,0.4,0,1v18c0,0.6,0.4,1,1,1h18c0.6,0,1-0.4,1-1V1C20,0.4,19.6,0,19,0z M18,18H2V4h16V18z"></path><path fill="#5271ff" d="M5,12h4c0.6,0,1-0.4,1-1V7c0-0.6-0.4-1-1-1H5C4.4,6,4,6.4,4,7v4C4,11.6,4.4,12,5,12z M5.7,11L7,9.7L8.3,11   H5.7z M9,10.3L7.7,9L9,7.7V10.3z M8.3,7L7,8.3L5.7,7H8.3z M5,7.7L6.3,9L5,10.3V7.7z"></path><path fill="#5271ff" d="M12.4,8h4.2C16.8,8,17,7.8,17,7.6V6.4C17,6.2,16.8,6,16.6,6h-4.2C12.2,6,12,6.2,12,6.4v1.2   C12,7.8,12.2,8,12.4,8z"></path><path fill="#5271ff" d="M12.4,12h4.2c0.2,0,0.4-0.2,0.4-0.4v-1.2c0-0.2-0.2-0.4-0.4-0.4h-4.2c-0.2,0-0.4,0.2-0.4,0.4v1.2   C12,11.8,12.2,12,12.4,12z"></path><path fill="#5271ff" d="M12.4,16h4.2c0.2,0,0.4-0.2,0.4-0.4v-1.2c0-0.2-0.2-0.4-0.4-0.4h-4.2c-0.2,0-0.4,0.2-0.4,0.4v1.2   C12,15.8,12.2,16,12.4,16z"></path><path fill="#5271ff" d="M4.4,16h5.2c0.2,0,0.4-0.2,0.4-0.4v-1.2c0-0.2-0.2-0.4-0.4-0.4H4.4C4.2,14,4,14.2,4,14.4v1.2   C4,15.8,4.2,16,4.4,16z"></path></g></svg>
