<svg fill="#5271ff" xmlns="http://www.w3.org/2000/svg" xmlns:xlink="http://www.w3.org/1999/xlink" version="1.1" x="0px" y="0px" viewBox="-252 375.9 90 90" style="enable-background:new -252 375.9 90 90;" xml:space="preserve"><g><circle cx="-214.5" cy="411.6" r="1.9"></circle><circle cx="-200.3" cy="411.6" r="1.9"></circle><path d="M-165.9,446.1c0.5-0.7,0.9-1.6,0.9-2.7c0-1.7-1-3.1-2.4-3.9v-5.3c0-2.4-2-4.4-4.5-4.4c-0.3,0-0.6,0-0.9,0.1v-15.8l-1.7-0.1   c-0.6-0.1-2.4-0.2-4.9-0.3c1.9-1.5,3.1-3.5,3.2-5.7h0c0,0,0-0.1,0-0.1c0,0,0-0.1,0-0.1h0c-0.2-4.9-6-8.8-13.7-9.1   c-0.4-9.4-8.2-16.8-17.6-16.8c-9.7,0-17.7,7.9-17.7,17.7v14.2c-7.2-0.3-13.9,0.2-15.3,0.4l-1.7,0.1V430c-0.3-0.1-0.7-0.1-1-0.1   c-2.4,0-4.4,2-4.4,4.4v5.3c-1.4,0.7-2.4,2.2-2.4,4c0,1,0.3,1.9,0.9,2.6c-0.5,0.7-0.9,1.6-0.9,2.7c0,1,0.3,1.9,0.9,2.6   c-0.5,0.7-0.9,1.6-0.9,2.7c0,2.4,2,4.4,4.4,4.4h3.4v3.2h32.8h3.6h32.8v-3.2h3.4c2.4,0,4.4-2,4.4-4.5c0-1-0.3-1.9-0.9-2.6   c0.5-0.7,0.9-1.6,0.9-2.7C-165,447.7-165.3,446.8-165.9,446.1z M-180.5,443.5c0-0.4,0.3-0.8,0.8-0.8h10.4c0.4,0,0.8,0.3,0.8,0.8   c0,0.4-0.3,0.8-0.8,0.8h-10.4C-180.2,444.3-180.5,443.9-180.5,443.5z M-180.5,448.7c0-0.4,0.3-0.8,0.8-0.8h10.4   c0.4,0,0.8,0.3,0.8,0.8c0,0.4-0.3,0.8-0.8,0.8h-10.4C-180.2,449.5-180.5,449.2-180.5,448.7z M-171.8,433.5c0.4,0,0.8,0.3,0.8,0.8   v4.7h-1.6v-4.7C-172.6,433.9-172.3,433.5-171.8,433.5z M-179.8,407.9c-0.1,2.5-4.1,5.3-10,5.6v-11.3   C-183.9,402.6-179.9,405.4-179.8,407.9z M-207.4,385.5L-207.4,385.5c7.4,0,13.5,5.8,14,13.1h-28   C-220.9,391.3-214.8,385.5-207.4,385.5z M-221.5,402.2h28v11.7c-5.5,0.5-10.9,1.6-14,3.8c-3.1-2.3-8.5-3.4-14-3.8V402.2z    M-235.1,444.3h-10.4c-0.4,0-0.8-0.3-0.8-0.8c0-0.4,0.3-0.8,0.8-0.8h10.4c0.4,0,0.8,0.3,0.8,0.8   C-234.3,443.9-234.7,444.3-235.1,444.3z M-234.3,448.8c0,0.4-0.3,0.8-0.8,0.8h-10.4c-0.4,0-0.8-0.3-0.8-0.8c0-0.4,0.3-0.8,0.8-0.8   h10.4C-234.7,447.9-234.3,448.3-234.3,448.8z M-243,433.5c0.4,0,0.8,0.3,0.8,0.8v4.7h-1.6v-4.7C-243.9,433.9-243.5,433.5-243,433.5   z M-246.2,453.9c0-0.4,0.3-0.8,0.8-0.8h10.4c0.4,0,0.8,0.3,0.8,0.8c0,0.4-0.3,0.8-0.8,0.8h-10.4   C-245.9,454.8-246.2,454.4-246.2,453.9z M-209.3,458h-24c1.5-0.7,2.6-2.2,2.6-4.1c0-1-0.3-1.9-0.9-2.6c0.5-0.7,0.9-1.6,0.9-2.7   c0-1-0.3-1.9-0.9-2.6c0.5-0.7,0.9-1.6,0.9-2.7c0-2.4-2-4.4-4.4-4.4h-3.4v-21.5c9.9-0.7,24.9-0.3,29.2,3.4V458z M-205.6,420.9   c4.3-3.7,19.3-4.1,29.2-3.4V439h-3.4c-2.4,0-4.4,2-4.4,4.5c0,1,0.3,1.9,0.9,2.6c-0.5,0.7-0.9,1.6-0.9,2.7c0,1,0.3,1.9,0.9,2.6   c-0.5,0.7-0.9,1.6-0.9,2.7c0,1.8,1.1,3.3,2.6,4h-24V420.9z M-169.4,454.8h-10.4c-0.4,0-0.8-0.3-0.8-0.8c0-0.4,0.3-0.8,0.8-0.8h10.4   c0.4,0,0.8,0.3,0.8,0.8C-168.6,454.4-169,454.8-169.4,454.8z"></path><path d="M-216.2,396.3h5.4c1,0,1.8-0.8,1.8-1.8s-0.8-1.8-1.8-1.8h-5.4c-1,0-1.8,0.8-1.8,1.8S-217.3,396.3-216.2,396.3z"></path></g></svg>
