<svg fill="#5271ff" xmlns="http://www.w3.org/2000/svg" viewBox="0 0 32 32" enable-background="new 0 0 32 32" x="0px" y="0px"><g><path d="M29 22.991c-.553 0-1-.447-1-1v-18.991c0-.552.447-1 1-1s1 .448 1 1v18.991c0 .553-.447 1-1 1zM3 22.991c-.552 0-1-.447-1-1v-18.991c0-.552.448-1 1-1s1 .448 1 1v18.991c0 .553-.448 1-1 1zM16 32c-.552 0-1-.447-1-1v-9.009c0-.553.448-1 1-1s1 .447 1 1v9.009c0 .553-.448 1-1 1zM10 32c-.136 0-.273-.027-.406-.086-.504-.225-.732-.815-.507-1.32l4-9c.224-.504.813-.732 1.32-.508.504.225.732.815.507 1.32l-4 9c-.166.372-.532.594-.914.594zM22.001 32c-.384 0-.749-.221-.915-.594l-4-9c-.224-.505.003-1.096.508-1.32.506-.224 1.097.004 1.32.508l4 9c.224.505-.003 1.096-.508 1.32-.132.059-.269.086-.405.086zM14 17.6c-.525 0-1.019-.205-1.391-.576l-3.316-3.316c-.391-.391-.391-1.023 0-1.414s1.023-.391 1.414 0l3.316 3.316 7.77-7.816c.391-.391 1.023-.391 1.414 0s.391 1.023 0 1.414l-7.816 7.816c-.372.371-.866.576-1.391.576zM31 4h-30c-.552 0-1-.448-1-1s.448-1 1-1h30c.553 0 1 .448 1 1s-.447 1-1 1zM31 22.991h-30c-.552 0-1-.447-1-1s.448-1 1-1h30c.553 0 1 .447 1 1s-.447 1-1 1zM16 4c-.552 0-1-.448-1-1v-2c0-.552.448-1 1-1s1 .448 1 1v2c0 .552-.448 1-1 1z"></path></g></svg>
