<svg fill="#F5D327" xmlns="http://www.w3.org/2000/svg" xmlns:xlink="http://www.w3.org/1999/xlink" version="1.1" x="0px" y="0px" viewBox="0 0 100 100" enable-background="new 0 0 100 100" xml:space="preserve"><path d="M95,57.5v-15h-8.272c-0.302-1.479-0.693-2.937-1.171-4.369l7.164-4.136l-7.5-12.99l-7.158,4.133  c-0.995-1.123-2.056-2.198-3.197-3.207l4.129-7.152l-12.99-7.5l-4.129,7.152c-1.444-0.484-2.906-0.865-4.376-1.166V5h-15v8.272  c-1.479,0.302-2.937,0.693-4.369,1.171l-4.136-7.164l-12.99,7.5l4.132,7.158c-1.123,0.995-2.198,2.056-3.207,3.197l-7.152-4.129  l-7.5,12.99l7.152,4.129c-0.484,1.444-0.865,2.906-1.166,4.376H5v15h8.272c0.302,1.479,0.693,2.937,1.171,4.369l-7.164,4.136  l7.5,12.99l7.158-4.132c0.995,1.123,2.056,2.198,3.197,3.207l-4.129,7.152l12.99,7.5l4.129-7.152  c1.444,0.484,2.906,0.865,4.376,1.166V95h15v-8.272c1.479-0.302,2.937-0.693,4.369-1.171l4.136,7.164l12.99-7.5l-4.132-7.158  c1.123-0.995,2.198-2.056,3.207-3.197l7.152,4.129l7.5-12.99l-7.152-4.129c0.484-1.444,0.865-2.906,1.166-4.376H95z M23.484,50  l7.767-7.767V31.25h10.983L50,23.483l7.767,7.767H68.75v10.984L76.516,50l-7.767,7.767V68.75H57.767L50,76.517l-7.767-7.767H31.25  V57.767L23.484,50z"></path></svg>