<svg fill="#F5D327" xmlns="http://www.w3.org/2000/svg" xmlns:xlink="http://www.w3.org/1999/xlink" version="1.1" x="0px" y="0px" viewBox="0 0 48 48" enable-background="new 0 0 48 48" xml:space="preserve"><g><rect x="10" y="38" width="8" height="2"></rect><rect x="20" y="38" width="18" height="1"></rect><rect x="20" y="40" width="15" height="1"></rect><rect x="20" y="42" width="18" height="1"></rect><rect x="20" y="44" width="15" height="1"></rect><rect x="10" y="28" width="8" height="2"></rect><rect x="20" y="28" width="18" height="1"></rect><rect x="20" y="30" width="15" height="1"></rect><rect x="20" y="32" width="18" height="1"></rect><rect x="20" y="34" width="15" height="1"></rect><rect x="10" y="18" width="8" height="2"></rect><rect x="20" y="18" width="18" height="1"></rect><rect x="20" y="20" width="15" height="1"></rect><rect x="20" y="22" width="18" height="1"></rect><rect x="20" y="24" width="15" height="1"></rect><rect x="10" y="8" width="8" height="2"></rect><rect x="20" y="8" width="18" height="1"></rect><rect x="20" y="10" width="15" height="1"></rect><rect x="20" y="12" width="18" height="1"></rect><rect x="20" y="14" width="15" height="1"></rect><path d="M4,0v48h40V0H4z M12,1c0.553,0,1,0.447,1,1s-0.447,1-1,1s-1-0.447-1-1S11.447,1,12,1z M9,1c0.553,0,1,0.447,1,1   S9.553,3,9,3S8,2.553,8,2S8.447,1,9,1z M6,1c0.553,0,1,0.447,1,1S6.553,3,6,3S5,2.553,5,2S5.447,1,6,1z M43,47H5V4h38V47z"></path></g></svg>