<svg fill="#F5D327" xmlns="http://www.w3.org/2000/svg" xmlns:xlink="http://www.w3.org/1999/xlink" version="1.1" x="0px" y="0px" viewBox="15 15 100 100" enable-background="new 15 15 100 100" xml:space="preserve"><path d="M65,19.999c-24.853,0-45,20.147-45,45c0,24.854,20.147,45,45,45c24.853,0,45-20.146,45-45  C110,40.146,89.853,19.999,65,19.999z M91.08,55.45l-8.395,3.215l0.115,20.602c0.004,0.776-0.622,1.409-1.398,1.413  c-0.003,0-0.005,0-0.008,0c-0.773,0-1.402-0.624-1.406-1.398L79.88,59.74l-9.563,3.662l0.089,16  c0.004,0.776-0.622,1.409-1.398,1.413c-0.002,0-0.005,0-0.008,0c-0.773,0-1.402-0.624-1.406-1.398l-0.082-14.939l-8.386,3.212  l0.063,11.368c0.004,0.776-0.622,1.409-1.398,1.414c-0.003,0-0.005,0-0.008,0c-0.773,0-1.402-0.625-1.406-1.399l-0.058-10.309  l-7.703,2.951l0.046,8.26c0.004,0.776-0.622,1.41-1.398,1.414c-0.003,0-0.006,0-0.008,0c-0.773,0-1.402-0.624-1.406-1.398  l-0.041-7.201l-6.921,2.651c-0.166,0.062-0.335,0.093-0.502,0.093c-0.566,0-1.099-0.344-1.313-0.904  c-0.278-0.725,0.085-1.538,0.81-1.815l7.911-3.03l-0.105-18.829c-0.004-0.777,0.622-1.41,1.398-1.415c0.003,0,0.005,0,0.008,0  c0.773,0,1.402,0.625,1.406,1.398l0.099,17.77l7.703-2.949l-0.087-15.722c-0.005-0.776,0.622-1.41,1.398-1.414  c0.003,0,0.006,0,0.008,0c0.773,0,1.401,0.625,1.406,1.398l0.082,14.663l8.385-3.211l-0.062-11.091  c-0.004-0.776,0.623-1.41,1.399-1.414c0.002,0,0.005,0,0.007,0c0.773,0,1.402,0.625,1.406,1.398L70.3,60.397l9.563-3.662  l-0.036-6.489c-0.005-0.776,0.622-1.41,1.398-1.414c0.002,0,0.005,0,0.008,0c0.772,0,1.401,0.625,1.406,1.398l0.03,5.43l7.405-2.836  c0.721-0.277,1.537,0.084,1.815,0.81S91.806,55.172,91.08,55.45z"></path></svg>