<svg fill="#F5D327" xmlns="http://www.w3.org/2000/svg" xmlns:xlink="http://www.w3.org/1999/xlink" version="1.1" x="0px" y="0px" viewBox="0 0 100 100" enable-background="new 0 0 100 100" xml:space="preserve"><path d="M86,28v-5c0-1.1-0.9-2-2-2H56c-0.3,0-0.6,0.1-0.9,0.2c0,0-3.399,1.7-5.1,2.6l-5.1-2.6C44.6,21.1,44.3,21,44,21H16  c-1.1,0-2,0.9-2,2v5c-1.1,0-2,0.9-2,2v54c0,1.1,0.9,2,2,2h72c1.1,0,2-0.9,2-2V30C88,28.9,87.1,28,86,28z M56.5,25H82v51H56  c-0.3,0-0.6,0.1-0.9,0.2L51,78.3V27.7C51.8,27.4,53.3,26.6,56.5,25z M18,25h25.5l5.5,2.7v50.5L44.9,76.1c-0.3,0-0.6-0.1-0.9-0.1H18  V25z M22,39.5h8c0.3,0,0.5-0.2,0.5-0.5V29c0-0.3-0.2-0.5-0.5-0.5h-8c-0.3,0-0.5,0.2-0.5,0.5v10C21.5,39.3,21.7,39.5,22,39.5z   M22.5,29.5h7v9h-7V29.5z M43,29.5h-9c-0.671,0-0.671-1,0-1h9C43.671,28.5,43.671,29.5,43,29.5z M43,34.5h-9c-0.671,0-0.671-1,0-1h9  C43.671,33.5,43.671,34.5,43,34.5z M43,54.5H22c-0.671,0-0.671-1,0-1h21C43.671,53.5,43.671,54.5,43,54.5z M43,44.5H22  c-0.671,0-0.671-1,0-1h21C43.671,43.5,43.671,44.5,43,44.5z M43,49.5H22c-0.671,0-0.671-1,0-1h21C43.671,48.5,43.671,49.5,43,49.5z   M37,69.5H22c-0.671,0-0.671-1,0-1h15C37.671,68.5,37.671,69.5,37,69.5z M43,59.5H22c-0.671,0-0.671-1,0-1h21  C43.671,58.5,43.671,59.5,43,59.5z M43,64.5H22c-0.671,0-0.671-1,0-1h21C43.671,63.5,43.671,64.5,43,64.5z M43,39.5h-9  c-0.671,0-0.671-1,0-1h9C43.671,38.5,43.671,39.5,43,39.5z M63,28.5h15c0.671,0,0.671,1,0,1H63C62.329,29.5,62.329,28.5,63,28.5z   M57,33.5h21c0.671,0,0.671,1,0,1H57C56.329,34.5,56.329,33.5,57,33.5z M78,54.5H63c-0.3,0-0.5-0.2-0.5-0.5s0.2-0.5,0.5-0.5h15  C78.671,53.5,78.671,54.5,78,54.5z M57,43.5h21c0.671,0,0.671,1,0,1H57C56.329,44.5,56.329,43.5,57,43.5z M57,48.5h11  c0.671,0,0.671,1,0,1H57C56.329,49.5,56.329,48.5,57,48.5z M57,68.5h15c0.671,0,0.671,1,0,1H57C56.329,69.5,56.329,68.5,57,68.5z   M57,58.5h21c0.671,0,0.671,1,0,1H57C56.329,59.5,56.329,58.5,57,58.5z M57,63.5h21c0.671,0,0.671,1,0,1H57  C56.329,64.5,56.329,63.5,57,63.5z M57,38.5h21c0.671,0,0.671,1,0,1H57C56.329,39.5,56.329,38.5,57,38.5z"></path></svg>