<?xml version="1.0" encoding="UTF-8"?>
<svg width="61px" height="60px" viewBox="0 0 61 60" version="1.1" xmlns="http://www.w3.org/2000/svg" xmlns:xlink="http://www.w3.org/1999/xlink">
    <!-- Generator: Sketch 41.2 (35397) - http://www.bohemiancoding.com/sketch -->
    <title>Fill 3</title>
    <desc>Created with Sketch.</desc>
    <defs></defs>
    <g id="Page-1" stroke="none" stroke-width="1" fill="none" fill-rule="evenodd">
        <g id="Desktop-HD-Copy-17" transform="translate(-135.000000, -12.000000)" fill="#FFFFFF">
            <g id="Banner">
                <g id="Header" transform="translate(135.000000, 12.000000)">
                    <g id="Logo">
                        <path d="M48.6712882,29.2129499 C46.976456,29.2129499 45.8119562,31.460825 46.0350733,33.280207 C46.1251783,34.0120733 46.4650029,34.719944 47.1223403,34.719944 C47.6535308,34.719944 48.4464548,33.9623681 48.7390815,32.8499998 C48.9278729,32.1181335 49.6461385,31.587659 50.178187,31.587659 C50.430481,31.587659 50.6484493,31.713636 50.6853495,32.0170091 C50.7050867,32.1686957 50.6441586,32.4969215 50.3601133,33.6838475 C50.244264,34.1894695 50.2219523,34.6188196 50.2648595,34.971898 C50.3549645,35.7046213 50.6922146,36.1845336 51.0045786,36.4621972 C51.1187116,36.5633216 51.1847886,36.6901556 51.1942282,36.7655704 C51.2191143,36.9678191 51.0637905,37.1443583 50.8106383,37.1443583 C50.7342636,37.1443583 50.6338609,37.1443583 50.5514792,37.0946531 C49.247102,36.5633216 48.7073302,35.6797687 48.5545808,34.845921 C48.0508509,35.4775199 47.3857902,35.8314553 46.7027085,35.8314553 C45.5390668,35.8314553 44.4028856,34.8210684 44.2415548,33.5073084 C44.1754778,32.965693 44.2449873,32.3837993 44.4243392,31.8121894 C43.9497862,32.1044217 43.4391912,32.2689631 42.9826592,32.2689631 C42.8307679,32.2689631 42.7046209,32.2689631 42.5527296,32.2441105 C41.4139741,33.8860963 40.2254462,35.0233172 39.3149567,35.5280821 C38.9356575,35.7303309 38.5812445,35.8314553 38.3280924,35.8314553 C38.1255707,35.8314553 37.8981628,35.7808931 37.796902,35.6034969 C37.5643452,35.2118542 37.4098795,34.5836832 37.3180582,33.8501029 C36.1192327,35.159578 34.438989,35.8280273 33.6486394,35.8280273 C32.7381498,35.8280273 32.240427,35.2718432 32.138308,34.4388525 C32.1039823,34.1603319 32.1134218,33.8321062 32.1717756,33.4781708 C32.4729837,31.6090836 33.1646468,30.4470102 33.1217397,30.0930748 C33.1088675,29.9919505 33.0522301,29.9422452 32.9758554,29.9422452 C32.3940345,29.9422452 30.3499383,32.0384338 30.0401487,33.4276086 L29.7981524,34.5399769 C29.6411123,35.3224054 28.8679256,35.8280273 28.3375933,35.8280273 C28.0844411,35.8280273 27.891359,35.7011934 27.8570333,35.4235298 C27.8450193,35.3224054 27.855317,35.1964284 27.8870683,35.0447418 C27.8870683,35.0447418 27.9316917,34.8133555 28.0012013,34.4577062 C26.8993459,35.2769851 25.7099599,35.8314553 25.1538833,35.8314553 C24.395285,35.8314553 23.9653554,35.4269577 23.8151805,34.8210684 C23.314025,35.4775199 22.6498225,35.8314553 21.9409965,35.8314553 C21.0339395,35.8314553 20.1672152,35.2281369 19.7501578,34.3411561 C19.151174,35.0113194 18.4517876,35.6686279 17.6030843,36.2102432 C16.3587772,36.9935287 14.9694439,37.6242707 13.3252422,37.6242707 C11.8071875,37.6242707 10.5191151,36.8161326 9.80599838,36.159681 C8.74876638,35.1741468 8.18925724,33.7087001 8.02449382,32.3700875 C7.50617553,28.1520008 10.0891855,22.6201541 14.0907056,20.1948828 C15.0089185,19.6386986 16.0369736,19.3610351 16.9732075,19.3610351 C18.8954475,19.3610351 20.3302623,20.7296422 20.5310678,22.3630582 C20.7121359,23.8362177 20.1200173,25.1079854 18.47839,25.9315492 C17.6391263,26.3531865 17.2237852,26.3334758 17.0933475,26.132941 C17.0058169,25.9983942 17.0547311,25.7712928 17.2237852,25.630747 C18.7675842,24.3478385 18.7976192,23.2954593 18.6148348,21.811159 C18.4972692,20.8564762 17.8656761,20.245445 17.1577082,20.245445 C14.1224569,20.245445 9.76909824,27.01478 10.3749471,31.9407374 C10.6109364,33.8612437 11.7951735,36.0834093 14.2237178,36.0834093 C15.0329465,36.0834093 15.8902312,35.8563079 16.6531202,35.4775199 C17.9875323,34.7996437 18.7409818,34.2571714 19.49958,33.3770464 C19.3202282,31.1017477 21.277652,28.2531252 24.197054,28.2531252 C25.4610984,28.2531252 26.5106072,28.7578901 26.6341797,29.768277 C26.7895036,31.0314749 25.7073854,31.2842858 25.3032002,31.2842858 C24.9487872,31.2842858 24.3798384,31.1831614 24.3395057,30.8549357 C24.2957404,30.5010003 25.1049692,30.7032491 25.0062827,29.894254 C24.9436383,29.3894891 24.4158804,29.2129499 23.9104343,29.2129499 C22.088597,29.2129499 21.0837118,31.7384886 21.2767939,33.3050596 C21.3634663,34.0120733 21.7290352,34.719944 22.3863726,34.719944 C22.917563,34.719944 23.6847427,33.9623681 23.9773694,32.8499998 C24.1627283,32.0924239 24.8852846,31.587659 25.416475,31.587659 C25.6945133,31.587659 25.8867373,31.713636 25.921063,31.9912996 C25.933077,32.0924239 25.9236374,32.2184009 25.8918862,32.3700875 C25.830958,32.6991703 25.5778059,33.7909708 25.5889617,34.0180722 C25.5984013,34.2151791 25.7125343,34.4859867 26.0566496,34.4859867 C26.329539,34.4859867 27.3335661,33.9418004 28.2629349,33.1113807 C28.5555616,31.6116546 28.9151234,29.7631351 28.942584,29.6165904 C29.0558589,29.0089871 29.2746853,28.3825301 30.5138436,28.3825301 C30.7669957,28.3825301 30.9600778,28.5085071 30.996978,28.8118803 C31.0098501,28.9130047 30.9995524,29.0398386 30.9678011,29.1906682 L30.6219696,30.7503834 C31.7092366,29.3106463 33.399778,28.2496973 34.4115284,28.2496973 C34.8423161,28.2496973 35.1735592,28.4767986 35.2301967,28.9318584 C35.2602317,29.1838123 35.1864314,29.6131625 35.0182354,30.0930748 C34.6578154,31.0786091 34.2536301,32.5577675 33.9850314,33.8321062 C33.928394,34.1029139 34.0227897,34.5116963 34.5205125,34.5116963 C34.9178327,34.5116963 36.1947492,34.0223571 37.2253788,32.6666048 C37.2193718,32.4772108 37.2150811,32.2852459 37.2150811,32.0924239 C37.2150811,31.0314749 37.2905977,30.1727746 37.4931194,29.5411756 C37.6956411,28.8847241 38.5306141,28.2531252 39.0866907,28.2531252 C39.3655871,28.2531252 39.5681088,28.4048118 39.5681088,28.7073279 C39.5681088,28.8084523 39.5423645,28.9352863 39.4917341,29.0612633 C39.1124349,30.1727746 38.9099132,31.208871 38.9099132,32.2441105 C38.9099132,32.8251472 39.0360602,33.7601193 39.1630654,34.2400317 C39.1888097,34.3411561 39.2136958,34.4422804 39.3149567,34.4422804 C39.4917341,34.4422804 40.6811201,33.280207 41.5409792,31.8653226 C40.7815228,31.3854102 40.3515932,30.5010003 40.3515932,29.4143417 C40.3515932,27.5966737 41.4397184,26.6617016 42.5020992,26.6617016 C43.3370722,26.6617016 44.0956705,27.2675909 44.0956705,28.4802266 C44.0956705,29.2378025 43.7918879,30.0965028 43.3619584,30.9303505 C43.3619584,30.9303505 43.5395939,30.9560601 43.6151105,30.9560601 C44.2724479,30.9560601 44.7787522,30.6526869 45.0567905,30.3244611 C45.1812212,30.1847724 45.2953542,30.0793631 45.4069128,30.0142321 C46.2538998,28.9918474 47.4973488,28.2531252 48.9579079,28.2531252 C50.1979243,28.2531252 51.2680285,28.7330375 51.3924592,29.7434244 C51.5512156,31.0314749 50.4442113,31.2842858 50.0649122,31.2842858 C49.685613,31.2842858 49.1158062,31.1831614 49.0763316,30.8549357 C49.0359989,30.5267099 49.8666812,30.7032491 49.7705692,29.9199636 C49.7087829,29.4143417 49.1775925,29.2129499 48.6712882,29.2129499 M30.0341417,0 C13.4470985,0 -7.10542736e-15,13.4289757 -7.10542736e-15,29.9936644 C-7.10542736e-15,46.5600671 13.4470985,59.9890428 30.0341417,59.9890428 C46.6229012,59.9890428 60.0699997,46.5600671 60.0699997,29.9936644 C60.0699997,13.4289757 46.6229012,0 30.0341417,0" id="Fill-3"></path>
                    </g>
                </g>
            </g>
        </g>
    </g>
</svg>